<?xml version="1.0" encoding="iso-8859-1"?>
<!-- Generator: Adobe Illustrator 19.0.0, SVG Export Plug-In . SVG Version: 6.00 Build 0)  -->
<svg version="1.1" id="Capa_1" xmlns="http://www.w3.org/2000/svg" xmlns:xlink="http://www.w3.org/1999/xlink" x="0px" y="0px"
	 viewBox="0 0 508.015 508.015" style="enable-background:new 0 0 508.015 508.015;" xml:space="preserve">
<g>
	<g>
		<path d="M238.62,77.715h-89.5c-46.7-81.1-113.1-89.2-135.1-67.2c-30.1,30.1,6.6,100.1,60.5,131.4v99.9l266.2,266.2l164.1-164.1
			L238.62,77.715z M139.22,151.915c6.9-3.2,11.7-9.2,12.7-10.5c-0.5,3.4-2.1,6.6-4.6,9.1c-6.5,6.5-17,6.5-23.5,0
			c-6.5-6.5-6.7-17.2,0-23.4c7.8-7.2,16.2-4.4,18.3-3.4c-0.9,4-2.5,8.8-10.2,13.4L139.22,151.915z M74.52,122.315
			c-38.9-24.7-67.4-81.4-48.8-100.1c13.2-13.2,68-5,104.6,55.5h-55.8V122.315z M91.12,234.915v-140.7h47.4c1.6,4.2,2.7,8.2,3.4,12
			c-10.5-2.1-21.8,1-29.9,9.1c-12.9,12.9-12.8,33.9,0,46.9c16.4,16.6,40,8.5,46.9,0c4.5-5.6,18.9-23.4,0.4-46.4
			c0-6.8-1.2-14-3.6-21.5h75.9l249.6,249.6l-140.5,140.7L91.12,234.915z"/>
	</g>
</g>
<g>
	<g>
		<polygon points="217.62,115.315 205.92,127.015 422.82,343.915 339.52,427.215 122.62,210.315 110.92,222.015 339.52,450.615 
			446.22,343.915 		"/>
	</g>
</g>
<g>
	<g>
		<path d="M231.12,183.415c-3.9-3.8-12.9-11.5-23-9.3c-3.7,0.8-15.3,4.8-14.9,19.8c0.1,4.2,2.4,9.7,6.5,16.5
			c3.2,5.3,5.2,8.7,5.9,10.3c1.1,2.4,3,6.4-0.5,9.9c-1.9,1.8-8.4,5.6-16.8-3c-3.1-3.1-8.8-10.2-1.3-20.6l-10.9-8.9
			c-14.3,18.5-2.9,31.7,3.5,38.1c4.3,4.2,19.3,19.1,35.7,4.5c3.4-3,8.8-10.5,5.6-20.7c-1.1-3.6-3.6-8.5-7.3-14.6
			c-3.8-6.1-5.8-10.3-6-12.7c-0.2-1.9,0.4-6.1,6.3-6.1c2.9,0,12.7,6.7,13.5,13.3c0.3,2.6-0.6,5.4-2.8,8.4l10.6,9.7
			C239.72,213.215,248.12,200.015,231.12,183.415z"/>
	</g>
</g>
<g>
	<g>
		<path d="M274.02,228.015l-69.9,30.8l10.8,10.8l15.6-7.3l20.1,20.1l-7,15.8l11.1,11.1l30.2-70.5L274.02,228.015z M255.82,270.715
			l-13.8-13.8l25.5-11.9L255.82,270.715z"/>
	</g>
</g>
<g>
	<g>
		<polygon points="320.32,275.215 310.22,265.015 260.22,315.015 295.72,350.415 304.22,341.915 278.92,316.615 		"/>
	</g>
</g>
<g>
	<g>
		<polygon points="382.12,353.215 390.62,344.615 353.32,307.315 302.92,357.715 341.22,396.015 349.72,387.515 321.62,359.315 
			335.32,345.615 360.62,370.915 369.02,362.415 343.82,337.215 354.92,326.015 		"/>
	</g>
</g>
<g>
</g>
<g>
</g>
<g>
</g>
<g>
</g>
<g>
</g>
<g>
</g>
<g>
</g>
<g>
</g>
<g>
</g>
<g>
</g>
<g>
</g>
<g>
</g>
<g>
</g>
<g>
</g>
<g>
</g>
</svg>
